<?xml version="1.0" standalone="no"?>
<!DOCTYPE svg PUBLIC "-//W3C//DTD SVG 20010904//EN"
 "http://www.w3.org/TR/2001/REC-SVG-20010904/DTD/svg10.dtd">
<svg version="1.0" xmlns="http://www.w3.org/2000/svg"
 width="225.000000pt" height="225.000000pt" viewBox="0 0 225.000000 225.000000"
 preserveAspectRatio="xMidYMid meet">
<metadata>
Created by potrace 1.15, written by Peter Selinger 2001-2017
</metadata>
<g transform="translate(0.000000,225.000000) scale(0.100000,-0.100000)"
fill="#000000" stroke="none">
<path d="M1676 1952 c-98 -37 -184 -75 -191 -85 -7 -9 -32 -69 -56 -132 l-43
-115 -297 0 c-350 0 -329 7 -329 -113 0 -80 13 -107 51 -107 14 0 19 -7 19
-29 0 -15 3 -50 6 -76 l7 -47 -74 7 c-237 22 -475 -139 -514 -347 -7 -35 -10
-38 -39 -38 -49 0 -56 -14 -56 -111 0 -65 4 -90 15 -99 9 -7 15 -29 15 -51 0
-28 8 -47 30 -72 17 -19 30 -44 30 -56 0 -20 -5 -21 -113 -21 -75 0 -117 -4
-125 -12 -19 -19 -16 -183 4 -202 14 -14 128 -16 1109 -16 981 0 1095 2 1109
16 20 19 23 183 4 202 -8 8 -45 12 -100 12 -64 0 -88 3 -88 13 0 6 9 121 21
255 22 261 21 272 -27 272 l-24 0 0 149 c0 123 -3 152 -16 165 -13 14 -48 16
-230 16 l-214 0 0 35 c0 28 4 35 19 35 39 0 51 26 51 110 0 95 -13 110 -97
110 -29 0 -53 3 -52 8 0 4 17 47 37 96 l37 88 165 62 c91 34 171 65 178 70 29
18 2 78 -35 75 -4 0 -88 -31 -187 -67z m-136 -442 c0 -20 -7 -20 -345 -20
-338 0 -345 0 -345 20 0 20 7 20 345 20 338 0 345 0 345 -20z m-70 -145 c0
-34 -1 -35 -38 -35 -21 0 -43 -5 -50 -12 -8 -8 -12 -59 -12 -164 l0 -153 -32
-3 c-32 -3 -33 -4 -36 -58 -1 -30 6 -149 16 -263 10 -114 16 -210 13 -213 -2
-2 -33 -4 -68 -4 -58 0 -63 2 -63 22 0 12 12 34 26 49 18 19 28 42 32 76 3 26
11 54 19 61 17 17 18 173 1 190 -7 7 -26 12 -44 12 -29 0 -32 3 -43 46 -28
110 -101 207 -199 264 -56 33 -60 38 -66 79 -3 24 -6 66 -6 92 l0 49 275 0
275 0 0 -35z m-619 -214 c82 -26 159 -81 203 -144 31 -45 56 -103 56 -129 0
-5 -173 -8 -385 -8 -437 0 -405 -8 -361 87 78 166 296 253 487 194z m1129
-240 c0 -28 -127 -75 -235 -87 -116 -12 -286 28 -331 77 -17 19 -12 19 274 19
171 0 292 -4 292 -9z m-442 -160 c122 -26 330 -8 415 36 16 8 31 13 33 11 2
-2 -3 -78 -11 -169 -8 -90 -15 -165 -15 -167 0 -1 -120 -1 -267 0 l-268 3 -11
115 c-7 63 -12 138 -13 167 l-1 52 43 -18 c23 -10 66 -23 95 -30z m-338 9 c0
-20 -7 -20 -475 -20 -468 0 -475 0 -475 20 0 20 7 20 475 20 468 0 475 0 475
-20z m-35 -145 l0 -30 -435 -3 c-395 -2 -436 -1 -447 14 -9 12 -9 22 -2 35 9
18 29 19 447 17 l437 -3 0 -30z m-57 -137 c-4 -10 -89 -13 -383 -13 -294 0
-379 3 -382 13 -4 9 77 12 382 12 305 0 386 -3 383 -12z m1052 -128 l0 -30
-1035 0 -1035 0 0 30 0 30 1035 0 1035 0 0 -30z"/>
</g>
</svg>
