<?xml version="1.0" standalone="no"?>
<!DOCTYPE svg PUBLIC "-//W3C//DTD SVG 20010904//EN"
 "http://www.w3.org/TR/2001/REC-SVG-20010904/DTD/svg10.dtd">
<svg version="1.0" xmlns="http://www.w3.org/2000/svg"
 width="2000.000000pt" height="1640.000000pt" viewBox="0 0 2000.000000 1640.000000"
 preserveAspectRatio="xMidYMid meet">
<metadata>
Created by potrace 1.15, written by Peter Selinger 2001-2017
</metadata>
<g transform="translate(0.000000,1640.000000) scale(0.100000,-0.100000)"
fill="#000000" stroke="none">
<path d="M18626 16369 c-3 -17 -6 -59 -6 -93 -1 -123 -46 -372 -98 -531 -133
-408 -394 -775 -742 -1044 -309 -238 -701 -392 -1099 -431 -65 -6 -815 -10
-2050 -10 -1994 0 -2089 -2 -2350 -40 -1294 -192 -2394 -1118 -2809 -2365
-103 -308 -160 -623 -178 -977 l-7 -138 690 0 689 0 12 153 c36 459 206 877
501 1229 346 413 869 690 1413 748 64 6 771 10 2045 10 1221 0 2002 4 2093 10
1247 88 2347 824 2909 1949 220 439 361 1004 361 1447 l0 114 -684 0 -683 0
-7 -31z"/>
<path d="M4980 10359 c-1307 -57 -2527 -595 -3455 -1524 -846 -845 -1364
-1925 -1501 -3126 -22 -192 -30 -745 -15 -950 85 -1111 495 -2120 1215 -2984
132 -158 479 -505 636 -635 619 -513 1320 -872 2069 -1060 345 -86 248 -80
1286 -80 l923 0 129 25 c793 158 1568 520 2209 1033 110 88 358 308 413 366
l35 36 1054 0 1054 0 116 -109 c734 -685 1595 -1133 2545 -1325 l128 -26 927
0 927 0 125 26 c850 177 1616 548 2300 1114 161 133 517 489 650 650 435 526
752 1098 958 1730 425 1301 319 2734 -290 3955 -653 1307 -1821 2281 -3220
2686 -412 119 -790 179 -1253 199 -263 12 -9703 11 -9965 -1z m10175 -1392
c319 -42 545 -93 810 -182 1224 -411 2160 -1410 2495 -2660 255 -955 119
-2016 -369 -2870 -641 -1122 -1764 -1839 -3046 -1946 -173 -14 -605 -6 -762
15 -759 101 -1416 384 -1993 860 -177 146 -400 373 -544 553 l-81 103 -1685 0
-1685 0 -54 -71 c-103 -134 -281 -327 -421 -455 -639 -583 -1416 -925 -2285
-1004 -142 -13 -487 -13 -635 0 -1211 107 -2295 767 -2937 1790 -709 1128
-781 2554 -189 3746 586 1180 1738 1983 3041 2119 83 8 179 17 215 18 36 2
2299 3 5030 2 4612 -1 4974 -2 5095 -18z"/>
<path d="M4750 7446 c-75 -16 -122 -41 -179 -92 -60 -54 -107 -141 -120 -224
-7 -40 -11 -286 -11 -637 l0 -572 -612 -3 c-568 -3 -617 -4 -664 -22 -104 -37
-192 -125 -236 -233 -23 -58 -23 -59 -23 -513 0 -404 2 -461 17 -511 23 -74
93 -167 154 -206 102 -65 83 -63 754 -63 l610 0 0 -572 c0 -315 5 -602 10
-637 18 -126 101 -241 217 -298 l58 -28 490 0 490 0 65 31 c79 38 142 99 184
179 l31 60 3 632 3 633 627 2 627 3 65 31 c79 38 141 98 183 179 l32 60 0 495
0 495 -26 55 c-53 112 -157 194 -277 219 -35 7 -249 11 -642 11 l-589 0 -3
628 -3 627 -26 55 c-55 116 -160 196 -288 220 -79 15 -851 12 -921 -4z"/>
<path d="M14630 7449 c-168 -26 -312 -100 -436 -223 -144 -144 -213 -303 -221
-511 -4 -100 -2 -135 16 -210 64 -267 250 -469 516 -562 73 -25 92 -27 230
-28 130 0 160 3 225 23 239 75 427 251 509 477 137 380 -33 797 -394 965 -137
65 -304 90 -445 69z"/>
<path d="M13094 5910 c-88 -12 -208 -55 -289 -102 -102 -60 -230 -193 -282
-293 -71 -139 -88 -209 -88 -370 1 -158 14 -223 70 -341 89 -186 253 -329 460
-401 73 -25 92 -27 230 -28 172 0 239 15 380 88 95 49 239 186 294 280 226
385 85 882 -310 1087 -134 70 -317 101 -465 80z"/>
<path d="M16168 5910 c-287 -40 -537 -257 -628 -545 -34 -108 -39 -283 -11
-400 64 -267 250 -469 516 -562 73 -25 92 -27 230 -28 172 0 239 15 380 88 95
49 239 186 294 280 77 131 119 313 106 460 -38 448 -440 768 -887 707z"/>
<path d="M14630 4369 c-171 -26 -313 -100 -440 -228 -143 -144 -208 -297 -217
-506 -4 -100 -2 -135 16 -210 69 -289 287 -507 576 -576 117 -28 292 -23 400
11 235 74 423 251 504 475 179 494 -163 1011 -687 1039 -48 3 -116 0 -152 -5z"/>
</g>
</svg>
